name 900006_25ik_lsw.mot
datacolumns 165
datarows 4
range 0.53333000 0.55833000
cursor 1.0 1.0 0.0
keys m_key
wrap
enforce_loops no
enforce_constraints no
calc_derivatives 0.008333
event_color 1.000000 0.000000 1.000000
endheader

                time	          calcn_r_tx	          calcn_r_ty	          calcn_r_tz	          calcn_r_r1	          calcn_r_r2	          calcn_r_r3	          calcn_l_tx	          calcn_l_ty	          calcn_l_tz	          calcn_l_r1	          calcn_l_r2	          calcn_l_r3	           pelvis_tz	           pelvis_tx	           pelvis_ty	         pelvis_tilt	         pelvis_list	     pelvis_rotation	       hip_flexion_r	     hip_adduction_r	      hip_rotation_r	        knee_angle_r	       ankle_angle_r	    subtalar_angle_r	         mtp_angle_r	       hip_flexion_l	     hip_adduction_l	      hip_rotation_l	        knee_angle_l	       ankle_angle_l	    subtalar_angle_l	         mtp_angle_l	    lumbar_extension	      lumbar_bending	     lumbar_rotation	     ground_force_px	     ground_force_py	     ground_force_pz	     ground_force_vx	     ground_force_vy	     ground_force_vz	     ground_force_px	     ground_force_py	     ground_force_pz	     ground_force_vx	     ground_force_vy	     ground_force_vz	     ground_torque_x	     ground_torque_y	     ground_torque_z	     ground_torque_x	     ground_torque_y	     ground_torque_z	           midhip_px	           midhip_py	           midhip_pz	            hip_r_px	            hip_r_py	            hip_r_pz	            hip_l_px	            hip_l_py	            hip_l_pz	           knee_r_px	           knee_r_py	           knee_r_pz	           knee_l_px	           knee_l_py	           knee_l_pz	          ankle_r_px	          ankle_r_py	          ankle_r_pz	          ankle_l_px	          ankle_l_py	          ankle_l_pz	          midasis_px	          midasis_py	          midasis_pz	           asis_r_px	           asis_r_py	           asis_r_pz	           asis_l_px	           asis_l_py	           asis_l_pz	           psis_r_px	           psis_r_py	           psis_r_pz	           psis_l_px	           psis_l_py	           psis_l_pz	     epicondLat_r_px	     epicondLat_r_py	     epicondLat_r_pz	     epicondLat_l_px	     epicondLat_l_py	     epicondLat_l_pz	     epicondMed_r_px	     epicondMed_r_py	     epicondMed_r_pz	     epicondMed_l_px	     epicondMed_l_py	     epicondMed_l_pz	   malleolusLat_r_px	   malleolusLat_r_py	   malleolusLat_r_pz	   malleolusLat_l_px	   malleolusLat_l_py	   malleolusLat_l_pz	  malleolusMedv_r_px	  malleolusMedv_r_py	  malleolusMedv_r_pz	  malleolusMedv_l_px	  malleolusMedv_l_py	  malleolusMedv_l_pz	     sternalnotch_px	     sternalnotch_py	     sternalnotch_pz	   xyphoidprocess_px	   xyphoidprocess_py	   xyphoidprocess_pz	             neck_px	             neck_py	             neck_pz	            toe_r_px	            toe_r_py	            toe_r_pz	            toe_l_px	            toe_l_py	            toe_l_pz	      thighwand_r_px	      thighwand_r_py	      thighwand_r_pz	      thighwand_l_px	      thighwand_l_py	      thighwand_l_pz	      upperleg1_r_px	      upperleg1_r_py	      upperleg1_r_pz	      upperleg1_l_px	      upperleg1_l_py	      upperleg1_l_pz	      upperleg2_r_px	      upperleg2_r_py	      upperleg2_r_pz	      upperleg2_l_px	      upperleg2_l_py	      upperleg2_l_pz	      shankwand_r_px	      shankwand_r_py	      shankwand_r_pz	      shankwand_l_px	      shankwand_l_py	      shankwand_l_pz	      lowerleg1_r_px	      lowerleg1_r_py	      lowerleg1_r_pz	      lowerleg1_l_px	      lowerleg1_l_py	      lowerleg1_l_pz	    subclavicle_r_px	    subclavicle_r_py	    subclavicle_r_pz	    subclavicle_l_px	    subclavicle_l_py	    subclavicle_l_pz	
          0.53333000	         -1.88462616	          0.04936162	          0.32897622	         -0.11987506	         -8.93166677	          1.84462685	         -2.09838517	          0.04005752	          0.20580655	         -3.68649979	         -3.68746559	         -3.97635067	          0.25154496	         -1.85558492	          0.82497697	          2.83552845	         -1.54964971	         -6.90536945	         20.28902508	          1.90074994	         -1.14371245	        -31.04670550	          9.85500028	          0.00000000	          0.00000000	         -8.07366245	          3.98459221	         -5.52325186	        -11.70613217	         13.62461260	          0.00000000	          0.00000000	         -4.37145979	          3.39591306	         -3.02428019	         -1.64599808	          0.00000000	          0.31666101	          0.00000000	         -0.00000000	          0.00000000	         -1.94184115	          0.00000000	          0.20984003	          5.00148167	        424.11732715	         13.08714754	          0.00000000	          0.00000000	          0.00000000	          0.00000000	         -0.74483319	          0.00000000	         -1.89202714	          0.76470900	          0.24241033	         -1.90642762	          0.76385835	          0.29799644	         -1.87762629	          0.76555974	          0.18682413	         -1.81525788	          0.42102756	          0.32833888	         -1.96616747	          0.42722685	          0.20078461	         -1.83362204	          0.07501466	          0.32406033	         -2.05115565	          0.07045239	          0.21120935	         -1.85981379	          0.83812074	          0.25126766	         -1.87258416	          0.84285564	          0.36036317	         -1.84704287	          0.83338636	          0.14217174	         -2.04102047	          0.86519822	          0.26580655	         -2.03127062	          0.86147300	          0.21544434	         -1.79839823	          0.43090537	          0.38815506	         -1.94956775	          0.40852018	          0.14183970	         -1.79269389	          0.42490561	          0.26562223	         -1.95464254	          0.41771425	          0.25965391	         -1.84887621	          0.07603903	          0.35830262	         -2.05728619	          0.07084050	          0.17522985	         -1.82339186	          0.07060194	          0.29209876	         -2.05461586	          0.07257567	          0.24451923	         -1.86460748	          1.18985879	          0.23520920	         -1.85364811	          1.08828785	          0.23285097	         -1.97512813	          1.25915754	          0.22357186	         -1.75778028	          0.06354731	          0.35646907	         -1.96480424	          0.04561336	          0.20799564	         -1.73013775	          0.60563667	          0.36159447	         -1.82013523	          0.54657466	          0.12767464	         -1.79878896	          0.61977310	          0.39199667	         -1.83867801	          0.59522183	          0.19249623	         -1.78658343	          0.56306315	          0.38808523	         -1.85590492	          0.54000897	          0.20097391	         -1.71648527	          0.18817439	          0.38056157	         -2.02977262	          0.16536481	          0.08198546	         -1.78645079	          0.17777213	          0.34349835	         -2.03135755	          0.16037280	          0.16219409	         -1.87145853	          1.18924920	          0.29212607	         -1.85321650	          1.19101377	          0.18532196	
          0.54166333	         -1.86634062	          0.04839872	          0.32943345	          0.17112055	         -8.52961486	          2.04037064	         -2.09838258	          0.04099053	          0.20719621	         -3.67689923	         -3.23605579	         -4.09054589	          0.25134584	         -1.85017905	          0.82450567	          2.81618565	         -1.40443233	         -6.58506318	         20.72023283	          1.79028620	         -1.29958816	        -29.75369130	          8.29781320	          0.00000000	          0.00000000	         -8.47700071	          4.16913953	         -5.65837519	        -11.65186739	         13.89062093	          0.00000000	          0.00000000	         -4.42273095	          3.49388570	         -2.87992416	         -1.64407085	          0.00000000	          0.31694578	         -0.00000000	          0.00000000	         -0.00000000	         -1.94069797	          0.00000000	          0.21022087	          6.47256363	        423.93477085	         12.85065723	          0.00000000	         -0.00000000	          0.00000000	          0.00000000	         -0.82535823	          0.00000000	         -1.88748353	          0.76421812	          0.24254328	         -1.90174290	          0.76336923	          0.29816596	         -1.87322384	          0.76506716	          0.18692061	         -1.80733036	          0.42093202	          0.32868529	         -1.96396310	          0.42696932	          0.20081400	         -1.81711605	          0.07441065	          0.32439477	         -2.05089784	          0.07078819	          0.21142463	         -1.85516074	          0.83759336	          0.25133383	         -1.86766631	          0.84233024	          0.36052810	         -1.84265467	          0.83285700	          0.14213913	         -2.03631742	          0.86484963	          0.26666024	         -2.02658846	          0.86121741	          0.21605709	         -1.79157153	          0.43108461	          0.38850249	         -1.94769957	          0.40838703	          0.14194605	         -1.78501008	          0.42513500	          0.26590180	         -1.95129237	          0.41731590	          0.26021248	         -1.83244420	          0.07502415	          0.35861326	         -2.05707832	          0.07121465	          0.17545412	         -1.80687063	          0.07034303	          0.29240511	         -2.05418327	          0.07289515	          0.24473633	         -1.85965998	          1.18921159	          0.23556173	         -1.84889382	          1.08762592	          0.23298343	         -1.97001698	          1.25870395	          0.22427808	         -1.74094495	          0.06347451	          0.35673162	         -1.96468766	          0.04570428	          0.20813385	         -1.72468968	          0.60608673	          0.36165556	         -1.81760645	          0.54563117	          0.12746897	         -1.79363065	          0.61990974	          0.39227114	         -1.83525240	          0.59446160	          0.19219229	         -1.78060527	          0.56336818	          0.38833526	         -1.85261358	          0.53927330	          0.20077999	         -1.70325782	          0.19069429	          0.38102086	         -2.02916681	          0.16565269	          0.08223982	         -1.77289669	          0.17834214	          0.34400193	         -2.03055420	          0.16058743	          0.16239568	         -1.86623522	          1.18852152	          0.29238160	         -1.84851234	          1.19042724	          0.18575200	
          0.54999667	         -1.85075213	          0.04714263	          0.33007034	          0.33774435	         -8.45766823	          3.04019625	         -2.09805356	          0.04138804	          0.20766965	         -3.65845055	         -3.06699727	         -4.37272670	          0.25163116	         -1.84541415	          0.82375969	          2.71253316	         -1.42214432	         -6.51857773	         21.12389467	          1.87331085	         -1.40564421	        -28.64688372	          7.86137127	          0.00000000	          0.00000000	         -8.75185408	          4.15594009	         -5.74837334	        -11.58447564	         13.91552604	          0.00000000	          0.00000000	         -4.45294877	          3.56749053	         -2.83476468	         -1.64216823	          0.00000000	          0.31722708	          0.00000000	         -0.00000000	          0.00000000	         -1.93957003	          0.00000000	          0.21056229	          7.98283051	        424.28095232	         12.59944854	          0.00000000	          0.00000000	          0.00000000	          0.00000000	         -0.89858183	          0.00000000	         -1.88285772	          0.76371637	          0.24271064	         -1.89699894	          0.76284738	          0.29836331	         -1.86871620	          0.76458564	          0.18705810	         -1.79958476	          0.42070916	          0.32903152	         -1.96171867	          0.42668506	          0.20084689	         -1.80095930	          0.07399394	          0.32473739	         -2.05060195	          0.07114155	          0.21163152	         -1.85044856	          0.83704348	          0.25146747	         -1.86272472	          0.84174459	          0.36078460	         -1.83817202	          0.83234286	          0.14214993	         -2.03158089	          0.86446782	          0.26757375	         -2.02187708	          0.86095602	          0.21673444	         -1.78486566	          0.43115695	          0.38885437	         -1.94581783	          0.40828680	          0.14206690	         -1.77746162	          0.42526387	          0.26611155	         -1.94767157	          0.41683396	          0.26081238	         -1.81636513	          0.07420711	          0.35892534	         -2.05683840	          0.07161178	          0.17567130	         -1.79074807	          0.07030454	          0.29270729	         -2.05379876	          0.07324579	          0.24495050	         -1.85471576	          1.18848736	          0.23603526	         -1.84413669	          1.08689010	          0.23317687	         -1.96487877	          1.25816206	          0.22506799	         -1.72445191	          0.06366288	          0.35706931	         -1.96457317	          0.04579469	          0.20829451	         -1.71933900	          0.60638929	          0.36180790	         -1.81513668	          0.54470683	          0.12721193	         -1.78852482	          0.61989620	          0.39258750	         -1.83183049	          0.59363825	          0.19182993	         -1.77471156	          0.56346474	          0.38859649	         -1.84921431	          0.53863709	          0.20051097	         -1.69035474	          0.19321325	          0.38155382	         -2.02853937	          0.16597573	          0.08245064	         -1.75965938	          0.17896112	          0.34459418	         -2.02982511	          0.16080696	          0.16258630	         -1.86108236	          1.18767507	          0.29277582	         -1.84375203	          1.18980048	          0.18629061	
          0.55833000	         -1.83406679	          0.04624906	          0.33066024	          0.57012886	         -8.29643691	          3.53088188	         -2.09792676	          0.04219949	          0.20826119	         -3.56317143	         -2.61306574	         -4.61026312	          0.25184886	         -1.83994189	          0.82307478	          2.64416925	         -1.31643290	         -6.33113756	         21.49454561	          1.79035096	         -1.60325209	        -27.43315673	          6.80094688	          0.00000000	          0.00000000	         -9.11184386	          4.22392803	         -6.01094115	        -11.54083195	         14.06680593	          0.00000000	          0.00000000	         -4.50883794	          3.69215591	         -2.80906001	         -1.64034508	          0.00000000	          0.31752707	         -0.00000000	          0.00000000	         -0.00000000	         -1.93847028	          0.00000000	          0.21087112	          9.55366356	        425.16625900	         12.37088672	          0.00000000	         -0.00000000	          0.00000000	          0.00000000	         -0.96691877	          0.00000000	         -1.87814870	          0.76319213	          0.24291375	         -1.89219424	          0.76228637	          0.29859016	         -1.86410291	          0.76409831	          0.18723761	         -1.79225125	          0.42040359	          0.32937929	         -1.95962238	          0.42655286	          0.20089515	         -1.78518175	          0.07373408	          0.32510431	         -2.05027483	          0.07150696	          0.21182088	         -1.84567342	          0.83646456	          0.25166456	         -1.85775219	          0.84109803	          0.36111694	         -1.83359443	          0.83183153	          0.14221179	         -2.02680472	          0.86404891	          0.26853248	         -2.01713174	          0.86068656	          0.21748828	         -1.77826763	          0.43112149	          0.38920787	         -1.94391547	          0.40821166	          0.14220479	         -1.77029009	          0.42532749	          0.26623054	         -1.94411247	          0.41640362	          0.26134336	         -1.80065949	          0.07355921	          0.35925972	         -2.05657272	          0.07202779	          0.17587221	         -1.77501768	          0.07043467	          0.29303072	         -2.05345683	          0.07362332	          0.24515174	         -1.84976024	          1.18769186	          0.23661065	         -1.83937469	          1.08608389	          0.23344963	         -1.95971694	          1.25755927	          0.22591953	         -1.70832910	          0.06412365	          0.35747349	         -1.96445539	          0.04588828	          0.20846727	         -1.71406901	          0.60654467	          0.36207081	         -1.81270178	          0.54380102	          0.12688706	         -1.78341843	          0.61973702	          0.39297657	         -1.82838602	          0.59275862	          0.19142632	         -1.76893337	          0.56336161	          0.38888447	         -1.84580385	          0.53804617	          0.20017243	         -1.67777829	          0.19570694	          0.38213200	         -2.02788904	          0.16633559	          0.08262035	         -1.74672343	          0.17963445	          0.34522958	         -2.02915482	          0.16103886	          0.16276184	         -1.85600074	          1.18673590	          0.29330252	         -1.83890717	          1.18912077	          0.18690663	
